<svg xmlns="http://www.w3.org/2000/svg" viewBox="0 0 512 512" width="512" height="512">
  <defs>
    <linearGradient id="blueGrad" x1="0%" y1="0%" x2="0%" y2="100%">
      <stop offset="0%" stop-color="#1A73E8" />
      <stop offset="50%" stop-color="#0066FF" />
      <stop offset="100%" stop-color="#0047BA" />
    </linearGradient>
    <filter id="phoneShadow" x="-20%" y="-20%" width="140%" height="140%">
      <feDropShadow dx="0" dy="8" stdDeviation="10" flood-color="#002266" flood-opacity="0.4" />
    </filter>
  </defs>

  <!-- Full-bleed blue background -->
  <rect width="512" height="512" fill="url(#blueGrad)" />

  <!-- Handset within 75% safe zone -->
  <g transform="translate(64, 64) scale(0.75)">
    <g filter="url(#phoneShadow)" transform="translate(256, 256) rotate(-35) translate(-256, -256)">
      <path fill="#FFFFFF" d="M182 120 c-18 0 -34 14.5 -34 32.5 c0 134 108.5 242.5 242.5 242.5 c18 0 32.5 -16 32.5 -34 v-44 c0 -15.5 -10.5 -28.5 -25.5 -32 l-53 -12 c-12.5 -3 -25.5 2.5 -32.5 13.5 l-16 25 c-50 -25 -91 -66 -116 -116 l25 -16 c11 -7 16.5 -20 13.5 -32.5 l-12 -53 c-3.5 -15 -16.5 -25.5 -32 -25.5 Z"/>
    </g>
  </g>
</svg>
